# xmcd CD database file
#
# Track frame offsets:
#	150
#	16616
#	30544
#	47219
#	48642
#	64565
#	80823
#	96144
#	118262
#	132569
#	144954
#	161367
#	176048
#	189967
#	204489
#
# Disc length: 2947 seconds
#
# Revision: 1
# Processed by: cddbd v1.5.2PL0 Copyright (c) Steve Scherf et al.
# Submitted via: CDex 1.50
#
DISCID=cb0b810f
DTITLE=Various Artist - 016 - Tom Astor - Alles klar , kein Problem - CD - 02
DYEAR=2008
DGENRE=Country
TTITLE0=Flieg junger Adler - Version 2008
TTITLE1=Vilel vergeigt und viel erreicht ( Banks of Ohio )
TTITLE2=Sweet Caroline
TTITLE3=Die Antwort weiﬂ ganz allein der Wind ( Blowin in the Wind intro )
TTITLE4=Die Antwort weiﬂ ganz allein der Wind ( Blowin in the Wind )
TTITLE5=Glory glory Halleluja
TTITLE6=Komm ,komm , komm , M‰dchen meiner Tr‰ume
TTITLE7=14Tage auf dem Brenner
TTITLE8=Help me make it Trough the Night
TTITLE9=Hallo , Guten Morgen Deutschland
TTITLE10=Juanita , Juanita
TTITLE11=Santo Domingo
TTITLE12=Radwechsel - Version 2008
TTITLE13=Komm wir machen das Leben zur Party - Originalaufnahme
TTITLE14=Feitag 21.09.2007
EXTD=YEAR: 2008
EXTT0=
EXTT1=
EXTT2=
EXTT3=
EXTT4=
EXTT5=
EXTT6=
EXTT7=
EXTT8=
EXTT9=
EXTT10=
EXTT11=
EXTT12=
EXTT13=
EXTT14=
PLAYORDER=
